<mxfile host="app.diagrams.net" modified="2021-12-21T05:46:53.408Z" agent="5.0 (Macintosh; Intel Mac OS X 10_15_7) AppleWebKit/537.36 (KHTML, like Gecko) Chrome/96.0.4664.110 Safari/537.36" etag="0GRnLQPgmHe-lwgwnKm6" version="16.0.0" type="github">
  <diagram id="C5RBs43oDa-KdzZeNtuy" name="Page-1">
    <mxGraphModel dx="1501" dy="836" grid="0" gridSize="10" guides="1" tooltips="1" connect="1" arrows="1" fold="1" page="1" pageScale="1" pageWidth="827" pageHeight="1169" math="0" shadow="1">
      <root>
        <mxCell id="WIyWlLk6GJQsqaUBKTNV-0" />
        <mxCell id="WIyWlLk6GJQsqaUBKTNV-1" parent="WIyWlLk6GJQsqaUBKTNV-0" />
        <mxCell id="H0Ra5voVGbOj1V1L6YjC-26" style="edgeStyle=orthogonalEdgeStyle;rounded=0;orthogonalLoop=1;jettySize=auto;html=1;entryX=0;entryY=0.5;entryDx=0;entryDy=0;" edge="1" parent="WIyWlLk6GJQsqaUBKTNV-1" source="H0Ra5voVGbOj1V1L6YjC-3" target="H0Ra5voVGbOj1V1L6YjC-25">
          <mxGeometry relative="1" as="geometry">
            <Array as="points">
              <mxPoint x="260" y="470" />
              <mxPoint x="260" y="945" />
            </Array>
          </mxGeometry>
        </mxCell>
        <mxCell id="H0Ra5voVGbOj1V1L6YjC-21" style="edgeStyle=orthogonalEdgeStyle;rounded=0;orthogonalLoop=1;jettySize=auto;html=1;" edge="1" parent="WIyWlLk6GJQsqaUBKTNV-1" source="H0Ra5voVGbOj1V1L6YjC-5" target="H0Ra5voVGbOj1V1L6YjC-8">
          <mxGeometry relative="1" as="geometry" />
        </mxCell>
        <mxCell id="H0Ra5voVGbOj1V1L6YjC-22" style="edgeStyle=orthogonalEdgeStyle;rounded=0;orthogonalLoop=1;jettySize=auto;html=1;entryX=0.5;entryY=0;entryDx=0;entryDy=0;" edge="1" parent="WIyWlLk6GJQsqaUBKTNV-1" source="H0Ra5voVGbOj1V1L6YjC-8" target="H0Ra5voVGbOj1V1L6YjC-9">
          <mxGeometry relative="1" as="geometry" />
        </mxCell>
        <mxCell id="H0Ra5voVGbOj1V1L6YjC-8" value="锁定D+1日提现单" style="rounded=0;whiteSpace=wrap;html=1;" vertex="1" parent="WIyWlLk6GJQsqaUBKTNV-1">
          <mxGeometry x="320" y="210" width="120" height="60" as="geometry" />
        </mxCell>
        <mxCell id="H0Ra5voVGbOj1V1L6YjC-23" style="edgeStyle=orthogonalEdgeStyle;rounded=0;orthogonalLoop=1;jettySize=auto;html=1;exitX=0.5;exitY=1;exitDx=0;exitDy=0;" edge="1" parent="WIyWlLk6GJQsqaUBKTNV-1" source="H0Ra5voVGbOj1V1L6YjC-9" target="H0Ra5voVGbOj1V1L6YjC-10">
          <mxGeometry relative="1" as="geometry" />
        </mxCell>
        <mxCell id="H0Ra5voVGbOj1V1L6YjC-9" value="是否未发起提现" style="rhombus;whiteSpace=wrap;html=1;" vertex="1" parent="WIyWlLk6GJQsqaUBKTNV-1">
          <mxGeometry x="325" y="320" width="110" height="80" as="geometry" />
        </mxCell>
        <mxCell id="H0Ra5voVGbOj1V1L6YjC-24" style="edgeStyle=orthogonalEdgeStyle;rounded=0;orthogonalLoop=1;jettySize=auto;html=1;exitX=0.5;exitY=1;exitDx=0;exitDy=0;entryX=0.5;entryY=0;entryDx=0;entryDy=0;" edge="1" parent="WIyWlLk6GJQsqaUBKTNV-1" source="H0Ra5voVGbOj1V1L6YjC-10" target="H0Ra5voVGbOj1V1L6YjC-11">
          <mxGeometry relative="1" as="geometry" />
        </mxCell>
        <mxCell id="H0Ra5voVGbOj1V1L6YjC-10" value="调用易宝支付发起提现" style="rounded=0;whiteSpace=wrap;html=1;" vertex="1" parent="WIyWlLk6GJQsqaUBKTNV-1">
          <mxGeometry x="310" y="440" width="140" height="60" as="geometry" />
        </mxCell>
        <mxCell id="H0Ra5voVGbOj1V1L6YjC-27" style="edgeStyle=orthogonalEdgeStyle;rounded=0;orthogonalLoop=1;jettySize=auto;html=1;entryX=0.5;entryY=0;entryDx=0;entryDy=0;" edge="1" parent="WIyWlLk6GJQsqaUBKTNV-1" source="H0Ra5voVGbOj1V1L6YjC-11" target="H0Ra5voVGbOj1V1L6YjC-25">
          <mxGeometry relative="1" as="geometry" />
        </mxCell>
        <mxCell id="H0Ra5voVGbOj1V1L6YjC-11" value="更新提现状态:已申请" style="rounded=0;whiteSpace=wrap;html=1;" vertex="1" parent="WIyWlLk6GJQsqaUBKTNV-1">
          <mxGeometry x="310" y="560" width="140" height="60" as="geometry" />
        </mxCell>
        <mxCell id="H0Ra5voVGbOj1V1L6YjC-18" value="事务1:创建提现单,返回支付单" style="swimlane;fillColor=#3399FF;" vertex="1" parent="WIyWlLk6GJQsqaUBKTNV-1">
          <mxGeometry x="20" y="140" width="220" height="730" as="geometry" />
        </mxCell>
        <mxCell id="H0Ra5voVGbOj1V1L6YjC-0" value="开始" style="ellipse;whiteSpace=wrap;html=1;aspect=fixed;" vertex="1" parent="H0Ra5voVGbOj1V1L6YjC-18">
          <mxGeometry x="80" y="-70" width="50" height="50" as="geometry" />
        </mxCell>
        <mxCell id="H0Ra5voVGbOj1V1L6YjC-1" value="锁定待提现支付单&lt;br&gt;查询条件:D日,预结算成功,未提现" style="rounded=0;whiteSpace=wrap;html=1;" vertex="1" parent="H0Ra5voVGbOj1V1L6YjC-18">
          <mxGeometry x="10" y="190" width="190" height="60" as="geometry" />
        </mxCell>
        <mxCell id="H0Ra5voVGbOj1V1L6YjC-2" value="根据锁定的支付单&lt;br&gt;统计提现金额" style="rounded=0;whiteSpace=wrap;html=1;" vertex="1" parent="H0Ra5voVGbOj1V1L6YjC-18">
          <mxGeometry x="45" y="410" width="120" height="60" as="geometry" />
        </mxCell>
        <mxCell id="H0Ra5voVGbOj1V1L6YjC-15" style="edgeStyle=orthogonalEdgeStyle;rounded=0;orthogonalLoop=1;jettySize=auto;html=1;entryX=0.5;entryY=0;entryDx=0;entryDy=0;" edge="1" parent="H0Ra5voVGbOj1V1L6YjC-18" source="H0Ra5voVGbOj1V1L6YjC-3" target="H0Ra5voVGbOj1V1L6YjC-2">
          <mxGeometry relative="1" as="geometry" />
        </mxCell>
        <mxCell id="H0Ra5voVGbOj1V1L6YjC-20" value="是" style="edgeLabel;html=1;align=center;verticalAlign=middle;resizable=0;points=[];" vertex="1" connectable="0" parent="H0Ra5voVGbOj1V1L6YjC-15">
          <mxGeometry x="-0.3526" y="1" relative="1" as="geometry">
            <mxPoint as="offset" />
          </mxGeometry>
        </mxCell>
        <mxCell id="H0Ra5voVGbOj1V1L6YjC-3" value="是否有可提现支付单" style="rhombus;whiteSpace=wrap;html=1;" vertex="1" parent="H0Ra5voVGbOj1V1L6YjC-18">
          <mxGeometry x="40" y="290" width="130" height="80" as="geometry" />
        </mxCell>
        <mxCell id="H0Ra5voVGbOj1V1L6YjC-14" style="edgeStyle=orthogonalEdgeStyle;rounded=0;orthogonalLoop=1;jettySize=auto;html=1;exitX=0.5;exitY=1;exitDx=0;exitDy=0;" edge="1" parent="H0Ra5voVGbOj1V1L6YjC-18" source="H0Ra5voVGbOj1V1L6YjC-1" target="H0Ra5voVGbOj1V1L6YjC-3">
          <mxGeometry relative="1" as="geometry" />
        </mxCell>
        <mxCell id="H0Ra5voVGbOj1V1L6YjC-13" style="edgeStyle=orthogonalEdgeStyle;rounded=0;orthogonalLoop=1;jettySize=auto;html=1;exitX=0.5;exitY=1;exitDx=0;exitDy=0;" edge="1" parent="H0Ra5voVGbOj1V1L6YjC-18" source="H0Ra5voVGbOj1V1L6YjC-5" target="H0Ra5voVGbOj1V1L6YjC-1">
          <mxGeometry relative="1" as="geometry" />
        </mxCell>
        <mxCell id="H0Ra5voVGbOj1V1L6YjC-19" value="否" style="edgeStyle=orthogonalEdgeStyle;rounded=0;orthogonalLoop=1;jettySize=auto;html=1;" edge="1" parent="H0Ra5voVGbOj1V1L6YjC-18" source="H0Ra5voVGbOj1V1L6YjC-5" target="H0Ra5voVGbOj1V1L6YjC-1">
          <mxGeometry relative="1" as="geometry" />
        </mxCell>
        <mxCell id="H0Ra5voVGbOj1V1L6YjC-5" value="是否已存在D+1日提现单" style="rhombus;whiteSpace=wrap;html=1;" vertex="1" parent="H0Ra5voVGbOj1V1L6YjC-18">
          <mxGeometry x="25" y="60" width="160" height="80" as="geometry" />
        </mxCell>
        <mxCell id="H0Ra5voVGbOj1V1L6YjC-12" style="edgeStyle=orthogonalEdgeStyle;rounded=0;orthogonalLoop=1;jettySize=auto;html=1;entryX=0.5;entryY=0;entryDx=0;entryDy=0;" edge="1" parent="H0Ra5voVGbOj1V1L6YjC-18" source="H0Ra5voVGbOj1V1L6YjC-0" target="H0Ra5voVGbOj1V1L6YjC-5">
          <mxGeometry relative="1" as="geometry" />
        </mxCell>
        <mxCell id="H0Ra5voVGbOj1V1L6YjC-6" value="创建提现单" style="rounded=0;whiteSpace=wrap;html=1;" vertex="1" parent="H0Ra5voVGbOj1V1L6YjC-18">
          <mxGeometry x="45" y="520" width="120" height="60" as="geometry" />
        </mxCell>
        <mxCell id="H0Ra5voVGbOj1V1L6YjC-16" style="edgeStyle=orthogonalEdgeStyle;rounded=0;orthogonalLoop=1;jettySize=auto;html=1;exitX=0.5;exitY=1;exitDx=0;exitDy=0;" edge="1" parent="H0Ra5voVGbOj1V1L6YjC-18" source="H0Ra5voVGbOj1V1L6YjC-2" target="H0Ra5voVGbOj1V1L6YjC-6">
          <mxGeometry relative="1" as="geometry" />
        </mxCell>
        <mxCell id="H0Ra5voVGbOj1V1L6YjC-7" value="更新支付单所关联提现单" style="rounded=0;whiteSpace=wrap;html=1;" vertex="1" parent="H0Ra5voVGbOj1V1L6YjC-18">
          <mxGeometry x="35" y="640" width="140" height="60" as="geometry" />
        </mxCell>
        <mxCell id="H0Ra5voVGbOj1V1L6YjC-17" style="edgeStyle=orthogonalEdgeStyle;rounded=0;orthogonalLoop=1;jettySize=auto;html=1;entryX=0.5;entryY=0;entryDx=0;entryDy=0;" edge="1" parent="H0Ra5voVGbOj1V1L6YjC-18" source="H0Ra5voVGbOj1V1L6YjC-6" target="H0Ra5voVGbOj1V1L6YjC-7">
          <mxGeometry relative="1" as="geometry" />
        </mxCell>
        <mxCell id="H0Ra5voVGbOj1V1L6YjC-25" value="结束" style="ellipse;whiteSpace=wrap;html=1;aspect=fixed;" vertex="1" parent="WIyWlLk6GJQsqaUBKTNV-1">
          <mxGeometry x="355" y="920" width="50" height="50" as="geometry" />
        </mxCell>
        <mxCell id="H0Ra5voVGbOj1V1L6YjC-28" value="事务2:发起提现" style="swimlane;fillColor=#3399FF;" vertex="1" parent="WIyWlLk6GJQsqaUBKTNV-1">
          <mxGeometry x="280" y="140" width="200" height="730" as="geometry" />
        </mxCell>
        <mxCell id="H0Ra5voVGbOj1V1L6YjC-36" style="edgeStyle=orthogonalEdgeStyle;rounded=0;orthogonalLoop=1;jettySize=auto;html=1;entryX=0.5;entryY=0;entryDx=0;entryDy=0;" edge="1" parent="WIyWlLk6GJQsqaUBKTNV-1" source="H0Ra5voVGbOj1V1L6YjC-29" target="H0Ra5voVGbOj1V1L6YjC-31">
          <mxGeometry relative="1" as="geometry" />
        </mxCell>
        <mxCell id="H0Ra5voVGbOj1V1L6YjC-29" value="开始" style="ellipse;whiteSpace=wrap;html=1;aspect=fixed;" vertex="1" parent="WIyWlLk6GJQsqaUBKTNV-1">
          <mxGeometry x="642" y="70" width="50" height="50" as="geometry" />
        </mxCell>
        <mxCell id="H0Ra5voVGbOj1V1L6YjC-35" value="事务3:处理易宝提现回调" style="swimlane;fillColor=#66FFB3;" vertex="1" parent="WIyWlLk6GJQsqaUBKTNV-1">
          <mxGeometry x="500" y="140" width="307" height="730" as="geometry" />
        </mxCell>
        <mxCell id="H0Ra5voVGbOj1V1L6YjC-38" style="edgeStyle=orthogonalEdgeStyle;rounded=0;orthogonalLoop=1;jettySize=auto;html=1;exitX=0.5;exitY=1;exitDx=0;exitDy=0;entryX=0.5;entryY=0;entryDx=0;entryDy=0;" edge="1" parent="H0Ra5voVGbOj1V1L6YjC-35" source="H0Ra5voVGbOj1V1L6YjC-30" target="H0Ra5voVGbOj1V1L6YjC-32">
          <mxGeometry relative="1" as="geometry" />
        </mxCell>
        <mxCell id="H0Ra5voVGbOj1V1L6YjC-30" value="锁定D+1日提现单" style="rounded=0;whiteSpace=wrap;html=1;" vertex="1" parent="H0Ra5voVGbOj1V1L6YjC-35">
          <mxGeometry x="100" y="190" width="120" height="60" as="geometry" />
        </mxCell>
        <mxCell id="H0Ra5voVGbOj1V1L6YjC-37" style="edgeStyle=orthogonalEdgeStyle;rounded=0;orthogonalLoop=1;jettySize=auto;html=1;exitX=0.5;exitY=1;exitDx=0;exitDy=0;" edge="1" parent="H0Ra5voVGbOj1V1L6YjC-35" source="H0Ra5voVGbOj1V1L6YjC-31" target="H0Ra5voVGbOj1V1L6YjC-30">
          <mxGeometry relative="1" as="geometry" />
        </mxCell>
        <mxCell id="H0Ra5voVGbOj1V1L6YjC-31" value="接收到提现回调" style="rounded=0;whiteSpace=wrap;html=1;" vertex="1" parent="H0Ra5voVGbOj1V1L6YjC-35">
          <mxGeometry x="100" y="70" width="120" height="60" as="geometry" />
        </mxCell>
        <mxCell id="H0Ra5voVGbOj1V1L6YjC-39" style="edgeStyle=orthogonalEdgeStyle;rounded=0;orthogonalLoop=1;jettySize=auto;html=1;entryX=0.5;entryY=0;entryDx=0;entryDy=0;exitX=0;exitY=0.5;exitDx=0;exitDy=0;" edge="1" parent="H0Ra5voVGbOj1V1L6YjC-35" source="H0Ra5voVGbOj1V1L6YjC-32" target="H0Ra5voVGbOj1V1L6YjC-33">
          <mxGeometry relative="1" as="geometry" />
        </mxCell>
        <mxCell id="H0Ra5voVGbOj1V1L6YjC-41" value="是" style="edgeLabel;html=1;align=center;verticalAlign=middle;resizable=0;points=[];" vertex="1" connectable="0" parent="H0Ra5voVGbOj1V1L6YjC-39">
          <mxGeometry x="-0.2295" y="-1" relative="1" as="geometry">
            <mxPoint as="offset" />
          </mxGeometry>
        </mxCell>
        <mxCell id="H0Ra5voVGbOj1V1L6YjC-32" value="提现是否成功" style="rhombus;whiteSpace=wrap;html=1;" vertex="1" parent="H0Ra5voVGbOj1V1L6YjC-35">
          <mxGeometry x="120" y="290" width="80" height="80" as="geometry" />
        </mxCell>
        <mxCell id="H0Ra5voVGbOj1V1L6YjC-42" style="edgeStyle=orthogonalEdgeStyle;rounded=0;orthogonalLoop=1;jettySize=auto;html=1;entryX=0.5;entryY=0;entryDx=0;entryDy=0;" edge="1" parent="H0Ra5voVGbOj1V1L6YjC-35" source="H0Ra5voVGbOj1V1L6YjC-33" target="H0Ra5voVGbOj1V1L6YjC-34">
          <mxGeometry relative="1" as="geometry" />
        </mxCell>
        <mxCell id="H0Ra5voVGbOj1V1L6YjC-33" value="更新提现单状态:提现成功" style="rounded=0;whiteSpace=wrap;html=1;" vertex="1" parent="H0Ra5voVGbOj1V1L6YjC-35">
          <mxGeometry x="7.5" y="420" width="140" height="60" as="geometry" />
        </mxCell>
        <mxCell id="H0Ra5voVGbOj1V1L6YjC-34" value="企业微信通知提现成功" style="rounded=0;whiteSpace=wrap;html=1;" vertex="1" parent="H0Ra5voVGbOj1V1L6YjC-35">
          <mxGeometry x="10" y="530" width="135" height="60" as="geometry" />
        </mxCell>
        <mxCell id="H0Ra5voVGbOj1V1L6YjC-45" style="edgeStyle=orthogonalEdgeStyle;rounded=0;orthogonalLoop=1;jettySize=auto;html=1;entryX=0.5;entryY=0;entryDx=0;entryDy=0;" edge="1" parent="WIyWlLk6GJQsqaUBKTNV-1" source="H0Ra5voVGbOj1V1L6YjC-43" target="H0Ra5voVGbOj1V1L6YjC-44">
          <mxGeometry relative="1" as="geometry" />
        </mxCell>
        <mxCell id="H0Ra5voVGbOj1V1L6YjC-43" value="企业微信通知提现失败" style="rounded=0;whiteSpace=wrap;html=1;" vertex="1" parent="WIyWlLk6GJQsqaUBKTNV-1">
          <mxGeometry x="662" y="670" width="135" height="60" as="geometry" />
        </mxCell>
        <mxCell id="H0Ra5voVGbOj1V1L6YjC-40" value="否" style="edgeStyle=orthogonalEdgeStyle;rounded=0;orthogonalLoop=1;jettySize=auto;html=1;exitX=1;exitY=0.5;exitDx=0;exitDy=0;entryX=0.5;entryY=0;entryDx=0;entryDy=0;" edge="1" parent="WIyWlLk6GJQsqaUBKTNV-1" source="H0Ra5voVGbOj1V1L6YjC-32" target="H0Ra5voVGbOj1V1L6YjC-43">
          <mxGeometry relative="1" as="geometry">
            <Array as="points">
              <mxPoint x="730" y="470" />
            </Array>
          </mxGeometry>
        </mxCell>
        <mxCell id="H0Ra5voVGbOj1V1L6YjC-44" value="结束" style="ellipse;whiteSpace=wrap;html=1;aspect=fixed;" vertex="1" parent="WIyWlLk6GJQsqaUBKTNV-1">
          <mxGeometry x="632" y="920" width="50" height="50" as="geometry" />
        </mxCell>
        <mxCell id="H0Ra5voVGbOj1V1L6YjC-46" style="edgeStyle=orthogonalEdgeStyle;rounded=0;orthogonalLoop=1;jettySize=auto;html=1;entryX=0.5;entryY=0;entryDx=0;entryDy=0;" edge="1" parent="WIyWlLk6GJQsqaUBKTNV-1" source="H0Ra5voVGbOj1V1L6YjC-34" target="H0Ra5voVGbOj1V1L6YjC-44">
          <mxGeometry relative="1" as="geometry" />
        </mxCell>
      </root>
    </mxGraphModel>
  </diagram>
</mxfile>
